<svg xmlns="http://www.w3.org/2000/svg" width="16" height="16" viewBox="0 0 1024 1024">
   <path d="m958 687h-898v36l171 120h556l170-120z" fill="#fff"/>
   <path d="m60 416v271l168 17c9 1 15 8 17 17l6 74 144 10 10-67c1-9 9-15 18-15h175c9 0 17 7 18 15l10 67 144-10 6-74c0-9 8-17 17-17l168-17 0-271s37-44 63-89c-26-44-57-84-91-120-32 15-62 34-91 53-30-29-65-52-97-72 6-37 8-74 9-112-43-22-89-36-137-46-19 31-35 65-51 98-35-6-72-7-106 0-14-33-32-67-51-98-46 10-93 25-137 46 1 39 3 75 9 112-35 22-69 44-97 72-29-19-60-37-91-53-35 37-66 76-93 120 14 27 60 89 60 89zm748 321-6 74c0 9-8 17-17 17l-176 12h-1c-9 0-17-7-18-15l-10-68h-144l-10 68c-1 9-10 15-19 15l-177-11c-9 0-17-8-17-17l-6-74-149-14v37c0 158 201 234 449 235 249-1 454-77 454-235v-37z" fill="#48b"/>
   <path d="m477 606v-93c0-40 64-40 64 0v93c0 39-64 39-64 0z" fill="#fff"/>
   <circle cx="273" cy="526" r="100" fill="#fff"/>
   <circle cx="744" cy="526" r="100" fill="#fff"/>
   <g fill="#444">
      <circle cx="734" cy="533" r="66"/>
      <circle cx="283" cy="533" r="66"/>
   </g>
</svg>
