<svg xmlns="http://www.w3.org/2000/svg" viewBox="0 0 1024 1024" height="16" width="16"><g fill="#fff"><path d="M920 673H105v33l155 109h505l154-109z"/><path d="M105 427v246l152 15c8 1 14 7 15 15l5 67 131 9 9-61c1-8 8-14 16-14h159c8 0 15 6 16 14l9 61 131-9 5-67c0-8 7-15 15-15l152-15V427s34-40 57-81c-24-40-52-76-83-109-29 14-56 31-83 48-27-26-59-47-88-65 5-34 7-67 8-102-39-20-81-33-124-42-17 28-32 59-46 89-32-5-65-6-96 0-13-30-29-61-46-89-42 9-84 23-124 42 1 35 3 68 8 102-32 20-63 40-88 65-26-17-54-34-83-48-32 34-60 69-84 109 25 46 57 81 57 81zm679 291l-5 67c0 8-7 15-15 15l-160 11h-1c-8 0-15-6-16-14l-9-62H447l-9 62c-1 8-9 14-17 14l-161-10c-8 0-15-7-15-15l-5-67-135-13v34c0 143 182 212 407 213h0 0c226-1 407-70 407-213v-34z" fill="#48b"/><path d="M483 600v-84c0-36 58-36 58 0v84c0 35-58 35-58 0z"/><circle cx="298" cy="527" r="91"/><circle cx="726" cy="527" r="91"/></g><g fill="#444"><circle cx="717" cy="533" r="60"/><circle cx="307" cy="533" r="60"/></g></svg>
